<svg width="32" height="32" viewBox="0 0 32 32" fill="none" xmlns="http://www.w3.org/2000/svg">
  <rect width="32" height="32" fill="#000000"/>
  <!-- Top left wing -->
  <path d="M8 10C8 8.89543 8.89543 8 10 8H16C17.1046 8 18 8.89543 18 10V16C18 17.1046 17.1046 18 16 18H10C8.89543 18 8 17.1046 8 16V10Z" fill="#BCCFD8"/>
  <!-- Top right wing -->
  <path d="M20 8C20 6.89543 20.8954 6 22 6H28C29.1046 6 30 6.89543 30 8V14C30 15.1046 29.1046 16 28 16H22C20.8954 16 20 15.1046 20 14V8Z" fill="#000000"/>
  <!-- Bottom left wing -->
  <path d="M6 18C6 16.8954 6.89543 16 8 16H14C15.1046 16 16 16.8954 16 18V24C16 25.1046 15.1046 26 14 26H8C6.89543 26 6 25.1046 6 24V18Z" fill="#FFFFFF"/>
  <!-- Bottom right wing -->
  <path d="M18 20C18 18.8954 18.8954 18 20 18H26C27.1046 18 28 18.8954 28 20V26C28 27.1046 27.1046 28 26 28H20C18.8954 28 18 27.1046 18 26V20Z" fill="#808080"/>
</svg>
