<svg width="40" height="40" viewBox="0 0 40 40" fill="none" xmlns="http://www.w3.org/2000/svg">
  <!-- Top left wing -->
  <path d="M8 12C8 10.8954 8.89543 10 10 10H18C19.1046 10 20 10.8954 20 12V18C20 19.1046 19.1046 20 18 20H10C8.89543 20 8 19.1046 8 18V12Z" fill="#BCCFD8"/>
  <!-- Top right wing -->
  <path d="M22 10C22 8.89543 22.8954 8 24 8H32C33.1046 8 34 8.89543 34 10V16C34 17.1046 33.1046 18 32 18H24C22.8954 18 22 17.1046 22 16V10Z" fill="#000000"/>
  <!-- Bottom left wing -->
  <path d="M6 22C6 20.8954 6.89543 20 8 20H16C17.1046 20 18 20.8954 18 22V28C18 29.1046 17.1046 30 16 30H8C6.89543 30 6 29.1046 6 28V22Z" fill="#FFFFFF"/>
  <!-- Bottom right wing -->
  <path d="M20 24C20 22.8954 20.8954 22 22 22H30C31.1046 22 32 22.8954 32 24V30C32 31.1046 31.1046 32 30 32H22C20.8954 32 20 31.1046 20 30V24Z" fill="#808080"/>
</svg>
